<?xml version="1.0" encoding="UTF-8" standalone="no"?>
<!DOCTYPE svg PUBLIC "-//W3C//DTD SVG 1.1//EN" "http://www.w3.org/Graphics/SVG/1.1/DTD/svg11.dtd">
<svg width="100%" height="100%" viewBox="0 0 748 284" version="1.1" xmlns="http://www.w3.org/2000/svg" xmlns:xlink="http://www.w3.org/1999/xlink" xml:space="preserve" xmlns:serif="http://www.serif.com/" style="fill-rule:evenodd;clip-rule:evenodd;stroke-miterlimit:1.5;">
    <g transform="matrix(1,0,0,1,-429.171,-726.952)">
        <g transform="matrix(1,0,0,1,-393.408,375.819)">
            <g transform="matrix(100,0,0,100,821.579,432.887)">
                <path d="M0.73,-0.75L0.01,-0.75L0.01,-0.48L0.217,-0.48L0.217,0L0.517,0L0.517,-0.48L0.73,-0.48L0.73,-0.75Z" style="fill-rule:nonzero;"/>
            </g>
            <g transform="matrix(100,0,0,100,895.579,432.887)">
                <path d="M0.506,-0.75L0.506,-0.509L0.34,-0.509L0.34,-0.75L0.04,-0.75L0.04,0L0.34,0L0.34,-0.239L0.506,-0.239L0.506,0L0.806,0L0.806,-0.75L0.506,-0.75Z" style="fill-rule:nonzero;"/>
            </g>
            <g transform="matrix(1,0,0,1,822.579,351.133)">
                <path d="M205.7,78.705L206.04,78.686L206.177,99.304C205.868,99.467 205.7,99.554 205.7,99.554L205.7,78.705ZM231.351,77.963C242.092,79.357 216.537,93.722 208.213,98.217C213.884,94.785 229.568,84.88 231.324,79.31C231.338,79.265 231.347,78.794 231.351,77.963ZM205.7,78.705C184.815,79.852 161.6,81.754 161.6,81.754L161.6,6.754C161.6,6.754 208.5,2.854 228.7,2.854C234.802,2.854 234.255,5.267 230.814,8.484C230.79,6.01 230.776,4.61 230.777,4.698C230.811,8.73 211.344,21.036 206.676,23.929C205.927,24.331 205.5,24.554 205.5,24.554L205.5,28.841C197.765,29.804 191.6,30.754 191.6,30.754L191.6,36.754C191.6,36.754 197.765,35.804 205.5,34.841L205.5,28.841L205.707,28.816L205.747,34.811L205.5,34.841L205.5,48.554C205.5,48.554 205.617,48.489 205.837,48.365L205.847,49.783C197.967,50.765 191.6,51.754 191.6,51.754L191.6,57.754C191.6,57.754 197.871,56.787 205.7,55.816L205.7,54.554C205.7,54.554 205.761,54.519 205.878,54.453L205.887,55.793L205.8,55.804L205.7,55.816L205.7,69.554C205.7,69.554 205.796,69.499 205.977,69.394L206.017,75.375C205.811,75.492 205.7,75.554 205.7,75.554L205.7,78.705ZM231.222,54.019C233.553,54.514 233.162,56.087 231.254,58.171L231.232,55.275L231.222,54.019ZM231.175,48.134C232.763,48.669 232.541,49.936 231.203,51.6L231.178,48.512L231.175,48.134ZM231.044,32.996C233.385,33.461 232.992,35.029 231.081,37.122L231.058,34.592L231.044,32.996ZM230.989,26.975C233.65,27.428 233.178,29.118 231.029,31.369C231.016,29.876 231.002,28.407 230.989,26.975Z" style="fill-rule:nonzero;"/>
            </g>
            <g transform="matrix(100,0,0,100,821.579,532.887)">
                <path d="M0.34,-0.24L0.34,-0.3L0.721,-0.3L0.721,-0.45L0.34,-0.45L0.34,-0.51L0.749,-0.51L0.749,-0.75L0.04,-0.75L0.04,0L0.751,0L0.751,-0.24L0.34,-0.24Z" style="fill-rule:nonzero;"/>
            </g>
            <g transform="matrix(100,0,0,100,899.679,532.887)">
                <path d="M0.469,-0.75L0.04,-0.75L0.04,0L0.34,0L0.34,-0.125L0.431,-0.125C0.695,-0.125 0.829,-0.221 0.829,-0.436C0.829,-0.654 0.67,-0.75 0.469,-0.75ZM0.439,-0.375L0.34,-0.375L0.34,-0.5L0.462,-0.5C0.491,-0.5 0.519,-0.492 0.519,-0.436C0.519,-0.389 0.488,-0.375 0.439,-0.375Z" style="fill-rule:nonzero;"/>
            </g>
            <g transform="matrix(100,0,0,100,984.579,532.887)">
                <path d="M0.506,-0.75L0.506,-0.509L0.34,-0.509L0.34,-0.75L0.04,-0.75L0.04,0L0.34,0L0.34,-0.239L0.506,-0.239L0.506,0L0.806,0L0.806,-0.75L0.506,-0.75Z" style="fill-rule:nonzero;"/>
            </g>
            <g transform="matrix(100,0,0,100,1069.18,532.887)">
                <path d="M0.34,-0.24L0.34,-0.3L0.721,-0.3L0.721,-0.45L0.34,-0.45L0.34,-0.51L0.749,-0.51L0.749,-0.75L0.04,-0.75L0.04,0L0.751,0L0.751,-0.24L0.34,-0.24Z" style="fill-rule:nonzero;"/>
            </g>
            <g transform="matrix(100,0,0,100,1147.28,532.887)">
                <path d="M1.093,-0.75L0.618,-0.75L0.573,-0.255L0.56,-0.255L0.515,-0.75L0.04,-0.75L0.04,0L0.29,0L0.29,-0.489L0.301,-0.489L0.371,0L0.762,0L0.832,-0.489L0.843,-0.489L0.843,0L1.093,0L1.093,-0.75Z" style="fill-rule:nonzero;"/>
            </g>
            <g transform="matrix(100,0,0,100,1260.58,532.887)">
                <path d="M0.34,-0.24L0.34,-0.3L0.721,-0.3L0.721,-0.45L0.34,-0.45L0.34,-0.51L0.749,-0.51L0.749,-0.75L0.04,-0.75L0.04,0L0.751,0L0.751,-0.24L0.34,-0.24Z" style="fill-rule:nonzero;"/>
            </g>
            <g transform="matrix(100,0,0,100,1338.68,532.887)">
                <path d="M0.829,-0.149C0.829,-0.234 0.781,-0.307 0.672,-0.321L0.672,-0.334C0.793,-0.346 0.829,-0.415 0.829,-0.511C0.829,-0.677 0.674,-0.75 0.479,-0.75L0.04,-0.75L0.04,0L0.34,0L0.34,-0.215L0.449,-0.215C0.492,-0.215 0.519,-0.207 0.519,-0.14C0.519,-0.073 0.524,-0.029 0.538,0L0.86,0L0.86,-0.015C0.839,-0.049 0.829,-0.089 0.829,-0.149ZM0.472,-0.5C0.496,-0.5 0.519,-0.494 0.519,-0.456C0.519,-0.425 0.492,-0.415 0.449,-0.415L0.34,-0.415L0.34,-0.5L0.472,-0.5Z" style="fill-rule:nonzero;"/>
            </g>
            <g transform="matrix(100,0,0,100,1425.18,532.887)">
                <path d="M0.53,0L0.85,0L0.695,-0.75L0.145,-0.75L-0.01,0L0.3,0L0.315,-0.078L0.515,-0.078L0.53,0ZM0.356,-0.298L0.411,-0.592L0.419,-0.592L0.474,-0.298L0.356,-0.298Z" style="fill-rule:nonzero;"/>
            </g>
            <g transform="matrix(100,0,0,100,1509.18,532.887)">
                <path d="M0.34,-0.27L0.34,-0.75L0.04,-0.75L0.04,0L0.613,0L0.613,-0.27L0.34,-0.27Z" style="fill-rule:nonzero;"/>
            </g>
            <g transform="matrix(100,0,0,100,821.579,632.887)">
                <path d="M0.605,-0.374L0.605,-0.387C0.753,-0.406 0.799,-0.456 0.799,-0.543C0.799,-0.683 0.663,-0.75 0.449,-0.75L0.04,-0.75L0.04,0L0.479,0C0.701,0 0.829,-0.064 0.829,-0.209C0.829,-0.299 0.759,-0.361 0.605,-0.374ZM0.442,-0.52C0.466,-0.52 0.489,-0.514 0.489,-0.478C0.489,-0.445 0.462,-0.435 0.419,-0.435L0.34,-0.435L0.34,-0.52L0.442,-0.52ZM0.472,-0.23L0.34,-0.23L0.34,-0.315L0.449,-0.315C0.492,-0.315 0.519,-0.305 0.519,-0.273C0.519,-0.238 0.496,-0.23 0.472,-0.23Z" style="fill-rule:nonzero;"/>
            </g>
            <g transform="matrix(100,0,0,100,906.479,632.887)">
                <path d="M0.406,0.02C0.625,0.02 0.788,-0.12 0.788,-0.369C0.788,-0.646 0.672,-0.77 0.39,-0.77C0.169,-0.77 0.011,-0.635 0.01,-0.381C0.011,-0.104 0.127,0.02 0.406,0.02ZM0.406,-0.239C0.356,-0.239 0.326,-0.273 0.325,-0.381C0.326,-0.487 0.359,-0.511 0.392,-0.511C0.443,-0.511 0.473,-0.477 0.473,-0.369C0.473,-0.263 0.441,-0.239 0.406,-0.239Z" style="fill-rule:nonzero;"/>
            </g>
            <g transform="matrix(100,0,0,100,986.279,632.887)">
                <path d="M0.406,0.02C0.625,0.02 0.788,-0.12 0.788,-0.369C0.788,-0.646 0.672,-0.77 0.39,-0.77C0.169,-0.77 0.011,-0.635 0.01,-0.381C0.011,-0.104 0.127,0.02 0.406,0.02ZM0.406,-0.239C0.356,-0.239 0.326,-0.273 0.325,-0.381C0.326,-0.487 0.359,-0.511 0.392,-0.511C0.443,-0.511 0.473,-0.477 0.473,-0.369C0.473,-0.263 0.441,-0.239 0.406,-0.239Z" style="fill-rule:nonzero;"/>
            </g>
            <g transform="matrix(100,0,0,100,1066.08,632.887)">
                <path d="M0.469,0L0.81,-0.002L0.646,-0.332L0.405,-0.367L0.405,-0.378L0.625,-0.41L0.8,-0.75L0.484,-0.75L0.333,-0.397L0.321,-0.397L0.33,-0.75L0.03,-0.75L0.03,0L0.33,0L0.321,-0.351L0.331,-0.351L0.469,0Z" style="fill-rule:nonzero;"/>
            </g>
            <g transform="matrix(100,0,0,100,1144.08,632.887)">
                <path d="M0.566,-0.445L0.566,-0.461L0.794,-0.531C0.783,-0.699 0.62,-0.77 0.407,-0.77C0.164,-0.77 0.019,-0.678 0.019,-0.498C0.019,-0.34 0.113,-0.293 0.22,-0.287L0.22,-0.273L0.02,-0.238C0,-0.104 0.12,0.02 0.407,0.02C0.684,0.02 0.817,-0.072 0.817,-0.24C0.817,-0.376 0.727,-0.449 0.566,-0.445ZM0.372,-0.522C0.439,-0.522 0.493,-0.506 0.501,-0.456C0.329,-0.467 0.289,-0.468 0.289,-0.498C0.289,-0.518 0.306,-0.522 0.372,-0.522ZM0.427,-0.214C0.32,-0.214 0.307,-0.234 0.319,-0.282C0.507,-0.276 0.533,-0.27 0.533,-0.24C0.533,-0.221 0.513,-0.214 0.427,-0.214Z" style="fill-rule:nonzero;"/>
            </g>
            <g transform="matrix(100,0,0,100,1226.78,632.887)">
                <path d="M0.506,-0.75L0.506,-0.509L0.34,-0.509L0.34,-0.75L0.04,-0.75L0.04,0L0.34,0L0.34,-0.239L0.506,-0.239L0.506,0L0.806,0L0.806,-0.75L0.506,-0.75Z" style="fill-rule:nonzero;"/>
            </g>
            <g transform="matrix(100,0,0,100,1311.38,632.887)">
                <path d="M0.406,0.02C0.625,0.02 0.788,-0.12 0.788,-0.369C0.788,-0.646 0.672,-0.77 0.39,-0.77C0.169,-0.77 0.011,-0.635 0.01,-0.381C0.011,-0.104 0.127,0.02 0.406,0.02ZM0.406,-0.239C0.356,-0.239 0.326,-0.273 0.325,-0.381C0.326,-0.487 0.359,-0.511 0.392,-0.511C0.443,-0.511 0.473,-0.477 0.473,-0.369C0.473,-0.263 0.441,-0.239 0.406,-0.239Z" style="fill-rule:nonzero;"/>
            </g>
            <g transform="matrix(100,0,0,100,1391.18,632.887)">
                <path d="M0.469,-0.75L0.04,-0.75L0.04,0L0.34,0L0.34,-0.125L0.431,-0.125C0.695,-0.125 0.829,-0.221 0.829,-0.436C0.829,-0.654 0.67,-0.75 0.469,-0.75ZM0.439,-0.375L0.34,-0.375L0.34,-0.5L0.462,-0.5C0.491,-0.5 0.519,-0.492 0.519,-0.436C0.519,-0.389 0.488,-0.375 0.439,-0.375Z" style="fill-rule:nonzero;"/>
            </g>
        </g>
        <path id="Layer1" d="M659.948,731.65C659.987,736.231 634.849,751.495 634.849,751.495L635.349,826.38C635.349,826.38 658.347,813.077 660.495,806.262C660.683,805.665 659.943,731.023 659.948,731.65Z" style="fill:none;stroke:black;stroke-width:5.21px;"/>
    </g>
</svg>
